<?xml version="1.0" encoding="UTF-8" standalone="no"?>
<svg
   viewBox="0 0 600 600"
   version="1.1"
   id="svg4"
   sodipodi:docname="logo.svg"
   width="600"
   height="600"
   inkscape:version="1.1.2 (0a00cf5339, 2022-02-04)"
   inkscape:export-filename="/home/hassan/dev/rosbot/gui/public/logo.png"
   inkscape:export-xdpi="48"
   inkscape:export-ydpi="48"
   xmlns:inkscape="http://www.inkscape.org/namespaces/inkscape"
   xmlns:sodipodi="http://sodipodi.sourceforge.net/DTD/sodipodi-0.dtd"
   xmlns:xlink="http://www.w3.org/1999/xlink"
   xmlns="http://www.w3.org/2000/svg"
   xmlns:svg="http://www.w3.org/2000/svg">
  <defs
     id="defs8">
    <linearGradient
       inkscape:collect="always"
       id="linearGradient3189">
      <stop
         style="stop-color:#ffb100;stop-opacity:1"
         offset="0"
         id="stop3185" />
      <stop
         style="stop-color:#ffcfc6;stop-opacity:1"
         offset="1"
         id="stop3187" />
    </linearGradient>
    <linearGradient
       inkscape:collect="always"
       id="linearGradient1286">
      <stop
         style="stop-color:#ffc500;stop-opacity:1"
         offset="0"
         id="stop1282" />
      <stop
         style="stop-color:#ffc184;stop-opacity:1"
         offset="1"
         id="stop1284" />
    </linearGradient>
    <linearGradient
       inkscape:collect="always"
       xlink:href="#linearGradient1286"
       id="linearGradient2545-6"
       gradientUnits="userSpaceOnUse"
       x1="100.12791"
       y1="128.82867"
       x2="100.12791"
       y2="185.48981"
       gradientTransform="translate(350.60496,-250.83352)" />
    <linearGradient
       inkscape:collect="always"
       xlink:href="#linearGradient3189"
       id="linearGradient2614"
       gradientUnits="userSpaceOnUse"
       x1="100.12791"
       y1="128.82867"
       x2="100.12791"
       y2="185.48981"
       gradientTransform="translate(350.60496,-250.83352)" />
  </defs>
  <sodipodi:namedview
     id="namedview6"
     pagecolor="#ffffff"
     bordercolor="#666666"
     borderopacity="1.0"
     inkscape:pageshadow="2"
     inkscape:pageopacity="0.0"
     inkscape:pagecheckerboard="0"
     showgrid="false"
     inkscape:snap-page="true"
     inkscape:lockguides="true"
     inkscape:zoom="0.58281067"
     inkscape:cx="145.84496"
     inkscape:cy="376.62317"
     inkscape:window-width="1872"
     inkscape:window-height="1016"
     inkscape:window-x="48"
     inkscape:window-y="27"
     inkscape:window-maximized="1"
     inkscape:current-layer="svg4" />
  <rect
     style="fill:#ececec;stroke-width:0.377953;paint-order:stroke fill markers"
     id="rect1200"
     width="600"
     height="600"
     x="0"
     y="0"
     rx="30"
     ry="30" />
  <rect
     style="fill:#ffffff;stroke-width:0.377953;paint-order:stroke fill markers"
     id="rect1455"
     width="199.39273"
     height="172.8503"
     x="91.764549"
     y="323.80936"
     rx="30"
     ry="30" />
  <!--! Font Awesome Pro 6.2.1 by @fontawesome - https://fontawesome.com License - https://fontawesome.com/license (Commercial License) Copyright 2022 Fonticons, Inc. -->
  <g
     id="g1351"
     transform="matrix(0.76225435,0,0,0.76225435,56.078608,242.911)">
    <path
       d="M 192,64 C 86,64 0,150 0,256 0,362 86,448 192,448 H 448 C 554,448 640,362 640,256 640,150 554,64 448,64 Z m 304,184 c -22.1,0 -40,-17.9 -40,-40 0,-22.1 17.9,-40 40,-40 22.1,0 40,17.9 40,40 0,22.1 -17.9,40 -40,40 z m -24,56 c 0,22.1 -17.9,40 -40,40 -22.1,0 -40,-17.9 -40,-40 0,-22.1 17.9,-40 40,-40 22.1,0 40,17.9 40,40 z M 168,200 c 0,-13.3 10.7,-24 24,-24 13.3,0 24,10.7 24,24 v 32 h 32 c 13.3,0 24,10.7 24,24 0,13.3 -10.7,24 -24,24 h -32 v 32 c 0,13.3 -10.7,24 -24,24 -13.3,0 -24,-10.7 -24,-24 v -32 h -32 c -13.3,0 -24,-10.7 -24,-24 0,-13.3 10.7,-24 24,-24 h 32 z"
       id="path2"
       style="fill:#ffcc00" />
    <circle
       style="fill:#ff5555;stroke-width:0.428666;paint-order:stroke fill markers"
       id="path961"
       cx="497.38272"
       cy="207.10757"
       r="41.321198" />
    <circle
       style="fill:#808080;stroke-width:0.428666;paint-order:stroke fill markers"
       id="path961-3"
       cx="432.66254"
       cy="303.71445"
       r="41.321198" />
  </g>
  <g
     inkscape:label="Layer 1"
     id="layer1"
     transform="matrix(3.7795276,0,0,3.7795276,-1408.9789,505.03897)">
    <text
       xml:space="preserve"
       style="font-style:normal;font-weight:normal;font-size:10.5833px;line-height:1.25;font-family:sans-serif;letter-spacing:0px;word-spacing:0px;fill:#000000;fill-opacity:1;stroke:none;stroke-width:0.264583"
       x="120.95238"
       y="173.0238"
       id="text1021" />
    <g
       id="g3063">
      <path
         inkscape:connector-curvature="0"
         id="path1106-7-5"
         d="m 452.16733,-123.64092 a 69.999999,69.999999 0 0 0 -53.62308,25.004684 l 15.32464,12.85916 a 50,50 0 0 1 38.29897,-17.864034 50,50 0 0 1 38.2638,17.892454 l 15.35875,-12.88758 a 69.999999,69.999999 0 0 0 -53.62308,-25.004684 z"
         style="fill:url(#linearGradient2614);fill-opacity:1;stroke:none;stroke-width:1.1919479;stroke-miterlimit:4;stroke-dasharray:none;stroke-opacity:1" />
      <path
         inkscape:connector-curvature="0"
         id="path1106-7-2-6"
         d="m 452.16731,-83.002856 a 30,30 0 0 0 -22.98152,10.71666 l 7.66204,6.42906 a 20,20 0 0 1 15.31948,-7.14581 20,20 0 0 1 15.30604,7.15718 l 7.67551,-6.44043 a 30,30 0 0 0 -22.98155,-10.71666 z"
         style="fill:url(#linearGradient2545-6);fill-opacity:1;stroke:none;stroke-width:1.192;stroke-miterlimit:4;stroke-dasharray:none;stroke-opacity:1" />
    </g>
  </g>
</svg>
